<svg width="206" height="122" viewBox="0 0 206 122" fill="none" xmlns="http://www.w3.org/2000/svg">
<path d="M5.29403 84.7159V72.6065L35.6562 24.7727H46.0966V41.5341H39.9176L20.777 71.8253V72.3935H63.9233V84.7159H5.29403ZM40.2017 97.5V81.0227L40.4858 75.6605V24.7727H54.9034V97.5H40.2017ZM102.684 99.098C96.576 99.0743 91.3203 97.571 86.9169 94.5881C82.5372 91.6051 79.1636 87.2846 76.7962 81.6264C74.4524 75.9683 73.2924 69.1619 73.3161 61.2074C73.3161 53.2765 74.4879 46.5175 76.8317 40.9304C79.1991 35.3433 82.5727 31.0937 86.9524 28.1818C91.3558 25.2462 96.5997 23.7784 102.684 23.7784C108.768 23.7784 114 25.2462 118.38 28.1818C122.783 31.1174 126.169 35.3788 128.536 40.9659C130.904 46.5294 132.076 53.2765 132.052 61.2074C132.052 69.1856 130.868 76.0038 128.501 81.6619C126.157 87.3201 122.795 91.6406 118.415 94.6236C114.036 97.6065 108.792 99.098 102.684 99.098ZM102.684 86.3494C106.851 86.3494 110.177 84.2543 112.663 80.0639C115.148 75.8736 116.379 69.5881 116.356 61.2074C116.356 55.6913 115.788 51.0985 114.651 47.429C113.539 43.7595 111.952 41.0014 109.893 39.1548C107.857 37.3082 105.454 36.3849 102.684 36.3849C98.541 36.3849 95.2266 38.4564 92.7408 42.5994C90.255 46.7424 89.0002 52.9451 88.9766 61.2074C88.9766 66.7945 89.5329 71.4583 90.6456 75.1989C91.782 78.9157 93.38 81.7093 95.4396 83.5795C97.4993 85.4261 99.9141 86.3494 102.684 86.3494ZM141.915 84.7159V72.6065L172.277 24.7727H182.718V41.5341H176.539L157.398 71.8253V72.3935H200.544V84.7159H141.915ZM176.823 97.5V81.0227L177.107 75.6605V24.7727H191.525V97.5H176.823Z" fill="#EAEAEA"/>
<g clip-path="url(#clip0_622_70)">
<path d="M98.3845 57.2891C96.4019 57.2885 94.4386 57.6785 92.6068 58.4369C90.775 59.1952 89.1106 60.3071 87.7086 61.709C86.3066 63.1108 85.1946 64.7751 84.436 66.6069C83.6774 68.4386 83.2872 70.4018 83.2876 72.3844C83.287 74.3672 83.6771 76.3306 84.4355 78.1625C85.194 79.9944 86.306 81.6589 87.708 83.0609C89.11 84.4629 90.7745 85.5749 92.6065 86.3334C94.4384 87.0919 96.4018 87.482 98.3845 87.4814C101.908 87.4814 105.143 86.2337 107.712 84.2121L109.058 85.5583C108.782 86.0954 108.684 86.7066 108.779 87.3032C108.874 87.8997 109.157 88.4504 109.586 88.8752L116.654 95.9906C117.751 97.0891 119.546 97.0891 120.645 95.9906L121.991 94.6444C122.518 94.1141 122.814 93.3968 122.814 92.6491C122.814 91.9014 122.518 91.184 121.991 90.6537L114.875 83.586C114.448 83.1586 113.894 82.8809 113.296 82.7943C112.698 82.7078 112.088 82.8172 111.557 83.106L110.211 81.7598C111.973 79.5362 113.073 76.8611 113.384 74.0411C113.695 71.2211 113.206 68.3705 111.971 65.816C110.737 63.2616 108.807 61.1067 106.404 59.5986C104.001 58.0904 101.222 57.29 98.3845 57.2891ZM98.3845 60.0768C101.649 60.0768 104.779 61.3735 107.087 63.6816C109.396 65.9897 110.692 69.1202 110.692 72.3844C110.692 75.6486 109.396 78.7792 107.087 81.0873C104.779 83.3954 101.649 84.6921 98.3845 84.6921C95.1203 84.6921 91.9898 83.3954 89.6817 81.0873C87.3735 78.7792 86.0768 75.6486 86.0768 72.3844C86.0768 69.1202 87.3735 65.9897 89.6817 63.6816C91.9898 61.3735 95.1203 60.0768 98.3845 60.0768ZM90.5953 68.4906C89.775 69.8198 89.3424 71.3517 89.3461 72.9137C89.3442 74.0191 89.5606 75.114 89.9828 76.1357C90.405 77.1573 91.0247 78.0856 91.8064 78.8672C92.588 79.6489 93.5163 80.2686 94.5379 80.6908C95.5595 81.113 96.6545 81.3293 97.7599 81.3275C99.498 81.3255 101.193 80.7884 102.615 79.7891C102.232 79.8251 101.847 79.8405 101.461 79.8352C100.034 79.8389 98.6191 79.5604 97.2992 79.0157C95.9793 78.471 94.78 77.6709 93.7703 76.6613C92.7606 75.6517 91.9603 74.4526 91.4154 73.1327C90.8706 71.8129 90.5918 70.3985 90.5953 68.9706C90.5953 68.8106 90.5876 68.6506 90.5953 68.4906Z" fill="#6E6E6E"/>
</g>
<defs>
<clipPath id="clip0_622_70">
<rect width="40" height="40" fill="white" transform="translate(83 57)"/>
</clipPath>
</defs>
</svg>
