<svg width="28" height="28" viewBox="0 0 28 28" fill="none" xmlns="http://www.w3.org/2000/svg">
<path d="M24.5 23.3346C23.7499 21.8331 22.1667 19.8626 22.1667 18.1173C22.1667 16.1351 22.5949 13.691 21.6744 11.8488C21.2847 11.0718 21 10.2843 21 9.3988V5.16964C21 5.03679 20.9473 4.90936 20.8535 4.81532C20.7597 4.72127 20.6324 4.66828 20.4995 4.66797C20.1056 4.66782 19.7155 4.7453 19.3515 4.89598C18.9875 5.04666 18.6568 5.2676 18.3782 5.54616C18.0997 5.82472 17.8787 6.15544 17.7281 6.51943C17.5774 6.88341 17.4999 7.27353 17.5 7.66747M9.33337 21.0013L13.5742 23.652C13.8542 23.827 14.0945 24.0603 14.2789 24.3356L15.1667 25.668" stroke="#007E04" stroke-width="1.5" stroke-linecap="round" stroke-linejoin="round"/>
<path d="M5.86487 17.5007C5.92903 18.7805 6.1192 19.5773 6.68737 20.1467C7.54137 21.0006 8.9157 21.0007 11.6667 21.0007C14.4177 21.0007 15.7909 21.0006 16.646 20.1467C17.5 19.2915 17.5 17.9172 17.5 15.1673V8.16732C17.5 5.41748 17.5 4.04198 16.646 3.18798C15.7909 2.33398 14.4165 2.33398 11.6667 2.33398C8.91687 2.33398 7.54137 2.33398 6.68737 3.18798C6.1192 3.75615 5.92903 4.55415 5.86487 5.83398" stroke="#007E04" stroke-width="1.5" stroke-linecap="round" stroke-linejoin="round"/>
<path d="M4.95833 8.75065H6.70833C7.09511 8.75065 7.46604 8.59701 7.73953 8.32352C8.01302 8.05002 8.16667 7.67909 8.16667 7.29232C8.16667 6.90554 8.01302 6.53461 7.73953 6.26112C7.46604 5.98763 7.09511 5.83398 6.70833 5.83398H4.95833C4.57156 5.83398 4.20063 5.98763 3.92714 6.26112C3.65365 6.53461 3.5 6.90554 3.5 7.29232C3.5 7.67909 3.65365 8.05002 3.92714 8.32352C4.20063 8.59701 4.57156 8.75065 4.95833 8.75065ZM4.95833 8.75065H7.875C8.26177 8.75065 8.63271 8.9043 8.9062 9.17779C9.17969 9.45128 9.33333 9.82221 9.33333 10.209C9.33333 10.5958 9.17969 10.9667 8.9062 11.2402C8.63271 11.5137 8.26177 11.6673 7.875 11.6673H4.95833M4.95833 8.75065C4.57156 8.75065 4.20063 8.9043 3.92714 9.17779C3.65365 9.45128 3.5 9.82221 3.5 10.209C3.5 10.5958 3.65365 10.9667 3.92714 11.2402C4.20063 11.5137 4.57156 11.6673 4.95833 11.6673M4.95833 11.6673H6.70833C7.09511 11.6673 7.46604 11.821 7.73953 12.0945C8.01302 12.3679 8.16667 12.7389 8.16667 13.1257C8.16667 13.5124 8.01302 13.8834 7.73953 14.1568C7.46604 14.4303 7.09511 14.584 6.70833 14.584H4.95833M4.95833 11.6673C4.57156 11.6673 4.20063 11.821 3.92714 12.0945C3.65365 12.3679 3.5 12.7389 3.5 13.1257C3.5 13.5124 3.65365 13.8834 3.92714 14.1568C4.20063 14.4303 4.57156 14.584 4.95833 14.584M4.95833 14.584H6.125C6.51177 14.584 6.88271 14.7376 7.1562 15.0111C7.42969 15.2846 7.58333 15.6555 7.58333 16.0423C7.58333 16.4291 7.42969 16.8 7.1562 17.0735C6.88271 17.347 6.51177 17.5007 6.125 17.5007H4.95833C4.57156 17.5007 4.20063 17.347 3.92714 17.0735C3.65365 16.8 3.5 16.4291 3.5 16.0423C3.5 15.6555 3.65365 15.2846 3.92714 15.0111C4.20063 14.7376 4.57156 14.584 4.95833 14.584ZM11.6667 17.5007H11.6772" stroke="#007E04" stroke-width="1.5" stroke-linecap="round" stroke-linejoin="round"/>
</svg>
