<svg width="24" height="25" viewBox="0 0 24 25" fill="none" xmlns="http://www.w3.org/2000/svg">
<path d="M3 10.4746H21M7 15.4746H8M12 15.4746H13M6 19.4746H18C18.7956 19.4746 19.5587 19.1585 20.1213 18.5959C20.6839 18.0333 21 17.2703 21 16.4746V8.47461C21 7.67896 20.6839 6.9159 20.1213 6.35329C19.5587 5.79068 18.7956 5.47461 18 5.47461H6C5.20435 5.47461 4.44129 5.79068 3.87868 6.35329C3.31607 6.9159 3 7.67896 3 8.47461V16.4746C3 17.2703 3.31607 18.0333 3.87868 18.5959C4.44129 19.1585 5.20435 19.4746 6 19.4746Z" stroke="#949494" stroke-width="2" stroke-linecap="round" stroke-linejoin="round"/>
</svg>
