<svg width="19" height="19" viewBox="0 0 19 19" fill="none" xmlns="http://www.w3.org/2000/svg">
<path d="M6.33329 12.666H4.74996C4.33003 12.666 3.92731 12.4992 3.63037 12.2023C3.33344 11.9053 3.16663 11.5026 3.16663 11.0827V4.74935C3.16663 4.32942 3.33344 3.9267 3.63037 3.62976C3.92731 3.33283 4.33003 3.16602 4.74996 3.16602H11.0833C11.5032 3.16602 11.9059 3.33283 12.2029 3.62976C12.4998 3.9267 12.6666 4.32942 12.6666 4.74935V6.33268M7.91663 15.8327H14.25C14.6699 15.8327 15.0726 15.6659 15.3695 15.3689C15.6665 15.072 15.8333 14.6693 15.8333 14.2493V7.91602C15.8333 7.49609 15.6665 7.09336 15.3695 6.79643C15.0726 6.4995 14.6699 6.33268 14.25 6.33268H7.91663C7.4967 6.33268 7.09397 6.4995 6.79704 6.79643C6.50011 7.09336 6.33329 7.49609 6.33329 7.91602V14.2493C6.33329 14.6693 6.50011 15.072 6.79704 15.3689C7.09397 15.6659 7.4967 15.8327 7.91663 15.8327Z" stroke="#C2C4FF" stroke-width="2" stroke-linecap="round" stroke-linejoin="round"/>
</svg>
