<svg width="28" height="28" viewBox="0 0 28 28" fill="none" xmlns="http://www.w3.org/2000/svg">
<path fill-rule="evenodd" clip-rule="evenodd" d="M13.9999 10.3723C14.8259 10.3718 15.6254 10.6635 16.2571 11.1957C16.8887 11.7279 17.3118 12.4664 17.4514 13.2805C17.5911 14.0945 17.4383 14.9318 17.0202 15.6441C16.6021 16.3564 15.9455 16.8979 15.1666 17.1728V23.2044H12.8333V17.1728C12.0549 16.8973 11.399 16.3555 10.9813 15.6433C10.5637 14.9311 10.4112 14.0941 10.5508 13.2804C10.6904 12.4666 11.113 11.7283 11.7442 11.196C12.3753 10.6636 13.1743 10.3715 13.9999 10.3711M13.9999 12.7044C14.3094 12.7044 14.6061 12.8273 14.8249 13.0461C15.0437 13.2649 15.1666 13.5617 15.1666 13.8711C15.1666 14.1805 15.0437 14.4773 14.8249 14.6961C14.6061 14.9148 14.3094 15.0378 13.9999 15.0378C13.6905 15.0378 13.3938 14.9148 13.175 14.6961C12.9562 14.4773 12.8333 14.1805 12.8333 13.8711C12.8333 13.5617 12.9562 13.2649 13.175 13.0461C13.3938 12.8273 13.6905 12.7044 13.9999 12.7044Z" fill="#CA6720"/>
<path d="M8.22493 8.09687C7.46556 8.85451 6.86337 9.75471 6.45293 10.7458C6.0425 11.7368 5.83191 12.7992 5.83326 13.8719C5.83326 16.4117 6.99293 18.6809 8.81293 20.1789L10.4731 18.5175C9.75638 17.9735 9.17524 17.2711 8.77511 16.4652C8.37498 15.6592 8.16671 14.7717 8.16659 13.8719C8.16659 12.2619 8.81992 10.8035 9.87459 9.7477L8.22493 8.09687ZM18.1253 9.74537C18.667 10.2873 19.0967 10.9307 19.3898 11.6387C19.6829 12.3467 19.8336 13.1056 19.8333 13.8719C19.8333 15.7689 18.9279 17.4535 17.5268 18.5187L19.1869 20.18C20.1194 19.4143 20.8704 18.4512 21.3856 17.3601C21.9009 16.2691 22.1676 15.0773 22.1666 13.8707C22.1679 12.798 21.9574 11.7356 21.5469 10.7446C21.1365 9.75354 20.5343 8.85334 19.7749 8.0957L18.1253 9.74537Z" fill="#CA6720"/>
<path d="M1.16664 13.8716C1.16447 12.1856 1.49544 10.5159 2.14053 8.95821C2.78562 7.40055 3.73211 5.98569 4.92564 4.79492L6.5753 6.44576C5.5986 7.41977 4.82409 8.57726 4.29631 9.85166C3.76853 11.1261 3.49789 12.4922 3.49997 13.8716C3.49805 15.2508 3.76876 16.6167 4.29653 17.8909C4.82431 19.1651 5.59874 20.3224 6.5753 21.2963L4.92564 22.9459C3.73239 21.7554 2.78606 20.341 2.14098 18.7837C1.4959 17.2265 1.16478 15.5571 1.16664 13.8716ZM23.0743 22.9448C24.2674 21.7544 25.2137 20.3401 25.8587 18.7831C26.5038 17.2261 26.835 15.557 26.8333 13.8716C26.8333 10.3273 25.3971 7.11892 23.0743 4.79726L21.4246 6.44692C22.4012 7.4208 23.1756 8.5781 23.7034 9.85229C24.2312 11.1265 24.5019 12.4924 24.5 13.8716C24.5019 15.2508 24.2312 16.6167 23.7034 17.8909C23.1756 19.1651 22.4012 20.3224 21.4246 21.2963L23.0743 22.9448Z" fill="#CA6720"/>
</svg>
