<svg width="28" height="28" viewBox="0 0 28 28" fill="none" xmlns="http://www.w3.org/2000/svg">
<path d="M10.7531 3.20829H19.2068C19.3087 3.20794 19.409 3.233 19.4988 3.28121C19.5885 3.32943 19.6648 3.39927 19.7208 3.48442C19.7767 3.56956 19.8106 3.66732 19.8192 3.76883C19.8278 3.87035 19.811 3.97241 19.7703 4.06579L16.4628 11.7856H22.0383C22.085 11.7861 22.1305 11.7999 22.1696 11.8254C22.2087 11.8509 22.2397 11.8871 22.259 11.9296C22.2782 11.9722 22.2849 12.0193 22.2783 12.0655C22.2716 12.1117 22.2519 12.1551 22.2214 12.1905L10.8511 24.6866C10.8201 24.733 10.7734 24.7667 10.7197 24.7817C10.6659 24.7966 10.6086 24.7918 10.558 24.7681C10.5075 24.7444 10.4672 24.7034 10.4443 24.6525C10.4214 24.6016 10.4176 24.5441 10.4334 24.4906L11.5616 15.4606H6.34194C6.24057 15.462 6.14044 15.4382 6.05049 15.3915C5.96055 15.3447 5.88359 15.2763 5.82651 15.1926C5.76942 15.1088 5.73398 15.0122 5.72335 14.9113C5.71272 14.8105 5.72724 14.7086 5.76561 14.6148L10.1756 3.58746C10.2224 3.47327 10.3025 3.37587 10.4056 3.308C10.5086 3.24014 10.6297 3.20614 10.7531 3.20829Z" stroke="#6B0096" stroke-width="1.5" stroke-linecap="round" stroke-linejoin="round"/>
</svg>
