<svg width="32" height="32" viewBox="0 0 32 32" fill="none" xmlns="http://www.w3.org/2000/svg">
<path d="M2.66663 14.666L6.40929 10.4567C6.90966 9.89359 7.52364 9.44289 8.21079 9.13425C8.89794 8.8256 9.64267 8.66602 10.396 8.66602H10.6666M2.66663 25.9993H9.99996L15.3333 21.9993C15.3333 21.9993 16.4133 21.27 18 19.9993C21.3333 17.3327 18 13.1113 14.6666 15.3327C11.952 17.142 9.33329 18.666 9.33329 18.666" stroke="#89303C" stroke-width="1.5" stroke-linecap="round" stroke-linejoin="round"/>
<path d="M10.6666 17.9993V9.33268C10.6666 8.62544 10.9476 7.94716 11.4477 7.44706C11.9478 6.94697 12.626 6.66602 13.3333 6.66602H26.6666C27.3739 6.66602 28.0521 6.94697 28.5522 7.44706C29.0523 7.94716 29.3333 8.62544 29.3333 9.33268V17.3327C29.3333 18.0399 29.0523 18.7182 28.5522 19.2183C28.0521 19.7184 27.3739 19.9993 26.6666 19.9993H18" stroke="#89303C" stroke-width="1.5"/>
<path d="M26 13.346L26.0133 13.3313M14 13.346L14.0133 13.3313M20 15.9993C19.2928 15.9993 18.6145 15.7184 18.1144 15.2183C17.6143 14.7182 17.3333 14.0399 17.3333 13.3327C17.3333 12.6254 17.6143 11.9472 18.1144 11.4471C18.6145 10.947 19.2928 10.666 20 10.666C20.7072 10.666 21.3855 10.947 21.8856 11.4471C22.3857 11.9472 22.6667 12.6254 22.6667 13.3327C22.6667 14.0399 22.3857 14.7182 21.8856 15.2183C21.3855 15.7184 20.7072 15.9993 20 15.9993Z" stroke="#89303C" stroke-width="1.5" stroke-linecap="round" stroke-linejoin="round"/>
</svg>
