<svg width="50" height="50" viewBox="0 0 50 50" fill="none" xmlns="http://www.w3.org/2000/svg">
<rect width="50" height="50" rx="25" fill="#474ED3"/>
<path d="M25 28V30M19 34H31C31.5304 34 32.0391 33.7893 32.4142 33.4142C32.7893 33.0391 33 32.5304 33 32V26C33 25.4696 32.7893 24.9609 32.4142 24.5858C32.0391 24.2107 31.5304 24 31 24H19C18.4696 24 17.9609 24.2107 17.5858 24.5858C17.2107 24.9609 17 25.4696 17 26V32C17 32.5304 17.2107 33.0391 17.5858 33.4142C17.9609 33.7893 18.4696 34 19 34ZM29 24V20C29 18.9391 28.5786 17.9217 27.8284 17.1716C27.0783 16.4214 26.0609 16 25 16C23.9391 16 22.9217 16.4214 22.1716 17.1716C21.4214 17.9217 21 18.9391 21 20V24H29Z" stroke="#F2F2FF" stroke-width="2" stroke-linecap="round" stroke-linejoin="round"/>
</svg>
