<svg width="24" height="25" viewBox="0 0 24 25" fill="none" xmlns="http://www.w3.org/2000/svg">
<path d="M15 17.4746H20L18.595 16.0696C18.4063 15.8809 18.2567 15.6569 18.1546 15.4103C18.0525 15.1637 18 14.8995 18 14.6326V11.4746C18.0002 10.2335 17.6156 9.02295 16.8992 8.0095C16.1829 6.99604 15.17 6.22957 14 5.81561V5.47461C14 4.94418 13.7893 4.43547 13.4142 4.0604C13.0391 3.68532 12.5304 3.47461 12 3.47461C11.4696 3.47461 10.9609 3.68532 10.5858 4.0604C10.2107 4.43547 10 4.94418 10 5.47461V5.81561C7.67 6.63961 6 8.86261 6 11.4746V14.6336C6 15.1716 5.786 15.6886 5.405 16.0696L4 17.4746H9M15 17.4746V18.4746C15 19.2703 14.6839 20.0333 14.1213 20.5959C13.5587 21.1585 12.7956 21.4746 12 21.4746C11.2044 21.4746 10.4413 21.1585 9.87868 20.5959C9.31607 20.0333 9 19.2703 9 18.4746V17.4746M15 17.4746H9" stroke="#949494" stroke-width="2" stroke-linecap="round" stroke-linejoin="round"/>
</svg>
