<svg width="61" height="61" viewBox="0 0 61 61" fill="none" xmlns="http://www.w3.org/2000/svg">
<rect x="0.5" y="0.5" width="60" height="60" rx="30" fill="#474ED3"/>
<path d="M38.9753 16.8037H21.6419C20.9055 16.8037 20.3086 17.4007 20.3086 18.137V42.137C20.3086 42.8734 20.9055 43.4704 21.6419 43.4704H38.9753C39.7116 43.4704 40.3086 42.8734 40.3086 42.137V18.137C40.3086 17.4007 39.7116 16.8037 38.9753 16.8037Z" stroke="#F2F2FF" stroke-width="2"/>
<path d="M30.3086 38.8037C32.5177 38.8037 34.3086 37.0129 34.3086 34.8037C34.3086 32.5946 32.5177 30.8037 30.3086 30.8037C28.0995 30.8037 26.3086 32.5946 26.3086 34.8037C26.3086 37.0129 28.0995 38.8037 30.3086 38.8037Z" stroke="#F2F2FF" stroke-width="2"/>
<path d="M26.3086 22.1367H28.3086M26.3086 26.1367H28.3086M32.3086 26.1367H34.3086" stroke="#F2F2FF" stroke-width="2" stroke-linecap="round" stroke-linejoin="round"/>
</svg>
