<svg width="33" height="32" viewBox="0 0 33 32" fill="none" xmlns="http://www.w3.org/2000/svg">
<g clip-path="url(#clip0_521_339)">
<path d="M16.2823 3C14.5216 2.99957 12.7994 3.51561 11.329 4.48421C9.85868 5.45282 8.70473 6.83144 8.01009 8.44934C7.31546 10.0672 7.11065 11.8534 7.42103 13.5865C7.73141 15.3197 8.54334 16.9237 9.75629 18.2L2.36829 25.588L3.78229 27.002L11.2923 19.492C12.4615 20.2703 13.7967 20.7641 15.1909 20.934C16.5852 21.1038 17.9998 20.945 19.3217 20.4701C20.6436 19.9953 21.836 19.2177 22.8035 18.1995C23.771 17.1813 24.4868 15.9508 24.8936 14.6064C25.3003 13.2621 25.3868 11.8411 25.1461 10.4574C24.9053 9.07358 24.344 7.76535 23.5071 6.63735C22.6702 5.50935 21.5809 4.59288 20.3264 3.96128C19.0718 3.32968 17.6869 3.00047 16.2823 3ZM9.28229 12C9.28229 10.1435 10.0198 8.36301 11.3325 7.05025C12.6453 5.7375 14.4258 5 16.2823 5C18.1388 5 19.9193 5.7375 21.232 7.05025C22.5448 8.36301 23.2823 10.1435 23.2823 12C23.2823 13.8565 22.5448 15.637 21.232 16.9497C19.9193 18.2625 18.1388 19 16.2823 19C14.4258 19 12.6453 18.2625 11.3325 16.9497C10.0198 15.637 9.28229 13.8565 9.28229 12ZM18.2823 27.71L13.9903 32H12.5743L9.57429 29L10.9903 27.586L13.2823 29.88L17.5743 25.588H18.9903L23.2823 29.88L27.5743 25.588H28.9883L32.2823 28.88V31.71L28.2823 27.71L23.9903 32H22.5743L18.2823 27.71Z" fill="#949494"/>
</g>
<defs>
<clipPath id="clip0_521_339">
<rect width="32" height="32" fill="white" transform="translate(0.282227)"/>
</clipPath>
</defs>
</svg>
