<svg width="24" height="25" viewBox="0 0 24 25" fill="none" xmlns="http://www.w3.org/2000/svg">
<path d="M8 5.47461H6C5.46957 5.47461 4.96086 5.68532 4.58579 6.0604C4.21071 6.43547 4 6.94418 4 7.47461V19.4746C4 20.005 4.21071 20.5137 4.58579 20.8888C4.96086 21.2639 5.46957 21.4746 6 21.4746H11.697M18 14.4746V18.4746H22M18 11.4746V7.47461C18 6.94418 17.7893 6.43547 17.4142 6.0604C17.0391 5.68532 16.5304 5.47461 16 5.47461H14" stroke="#949494" stroke-width="2" stroke-linecap="round" stroke-linejoin="round"/>
<path d="M8 11.4746H12M8 15.4746H11M8 5.47461C8 4.94418 8.21071 4.43547 8.58579 4.0604C8.96086 3.68532 9.46957 3.47461 10 3.47461H12C12.5304 3.47461 13.0391 3.68532 13.4142 4.0604C13.7893 4.43547 14 4.94418 14 5.47461C14 6.00504 13.7893 6.51375 13.4142 6.88882C13.0391 7.2639 12.5304 7.47461 12 7.47461H10C9.46957 7.47461 8.96086 7.2639 8.58579 6.88882C8.21071 6.51375 8 6.00504 8 5.47461ZM14 18.4746C14 19.5355 14.4214 20.5529 15.1716 21.303C15.9217 22.0532 16.9391 22.4746 18 22.4746C19.0609 22.4746 20.0783 22.0532 20.8284 21.303C21.5786 20.5529 22 19.5355 22 18.4746C22 17.4137 21.5786 16.3963 20.8284 15.6462C20.0783 14.896 19.0609 14.4746 18 14.4746C16.9391 14.4746 15.9217 14.896 15.1716 15.6462C14.4214 16.3963 14 17.4137 14 18.4746Z" stroke="#949494" stroke-width="2" stroke-linecap="round" stroke-linejoin="round"/>
</svg>
