<svg width="28" height="28" viewBox="0 0 28 28" fill="none" xmlns="http://www.w3.org/2000/svg">
<path d="M23.7183 4.28225C23.4976 4.06311 23.2208 3.90906 22.9182 3.83702C22.6157 3.76498 22.2991 3.77775 22.0033 3.87391L4.93498 9.56725C4.61843 9.66755 4.33871 9.85942 4.13113 10.1186C3.92356 10.3778 3.79746 10.6927 3.76874 11.0235C3.74003 11.3543 3.81 11.6862 3.96981 11.9773C4.12963 12.2684 4.37211 12.5056 4.66665 12.6589L11.7483 16.1589L15.2483 23.2639C15.389 23.542 15.6043 23.7755 15.87 23.9383C16.1358 24.101 16.4417 24.1867 16.7533 24.1856H16.87C17.2038 24.161 17.5224 24.0366 17.7846 23.8285C18.0467 23.6205 18.2402 23.3384 18.34 23.0189L24.115 5.99725C24.2181 5.70317 24.2356 5.38585 24.1653 5.08223C24.0951 4.77861 23.9401 4.50118 23.7183 4.28225ZM5.65832 11.1772L20.5566 6.20725L12.285 14.4789L5.65832 11.1772ZM16.835 22.3422L13.5216 15.7156L21.7933 7.44392L16.835 22.3422Z" fill="#474ED3"/>
</svg>
