<svg width="24" height="25" viewBox="0 0 24 25" fill="none" xmlns="http://www.w3.org/2000/svg">
<path fill-rule="evenodd" clip-rule="evenodd" d="M5 11.4746C5 9.61809 5.7375 7.83762 7.05025 6.52486C8.36301 5.21211 10.1435 4.47461 12 4.47461C13.8565 4.47461 15.637 5.21211 16.9497 6.52486C18.2625 7.83762 19 9.61809 19 11.4746V13.5096C20.696 13.7526 22 15.2116 22 16.9746V17.2246C22 17.6514 21.9159 18.074 21.7526 18.4683C21.5893 18.8626 21.3499 19.2209 21.0481 19.5227C20.7463 19.8245 20.388 20.0639 19.9937 20.2272C19.5994 20.3905 19.1768 20.4746 18.75 20.4746C18.2859 20.4746 17.8408 20.2902 17.5126 19.962C17.1844 19.6339 17 19.1887 17 18.7246V11.4746C17 10.1485 16.4732 8.87676 15.5355 7.93908C14.5979 7.00139 13.3261 6.47461 12 6.47461C10.6739 6.47461 9.40215 7.00139 8.46447 7.93908C7.52678 8.87676 7 10.1485 7 11.4746V18.7246C7 19.1887 6.81563 19.6339 6.48744 19.962C6.15925 20.2902 5.71413 20.4746 5.25 20.4746C4.38805 20.4746 3.5614 20.1322 2.9519 19.5227C2.34241 18.9132 2 18.0866 2 17.2246V16.9746C1.99978 16.1328 2.30296 15.3192 2.85395 14.6828C3.40495 14.0464 4.16685 13.6299 5 13.5096V11.4746ZM5 15.5596C4.70742 15.6631 4.45413 15.8547 4.27503 16.1081C4.09593 16.3615 3.99984 16.6643 4 16.9746V17.2246C4 17.8296 4.43 18.3346 5 18.4496V15.5596ZM19 15.5596V18.4496C19.57 18.3336 20 17.8296 20 17.2246V16.9746C20.0002 16.6643 19.9041 16.3615 19.725 16.1081C19.5459 15.8547 19.2926 15.6631 19 15.5596Z" fill="currentColor"/>
</svg>
