<svg width="285" height="89" viewBox="0 0 285 89" fill="none" xmlns="http://www.w3.org/2000/svg">
<g filter="url(#filter0_d_64_253)">
<rect x="16.9282" y="12.3984" width="252" height="56" rx="8" fill="white" shape-rendering="crispEdges"/>
<path d="M56.9282 40.1784L61.1682 32.8484L62.8982 33.8484L57.6682 42.8984L51.1582 39.1484L46.3882 47.3984H62.9282V49.3984H42.9282V31.3984H44.9282V45.9384L50.4282 36.3984L56.9282 40.1784Z" fill="#888888"/>
<path d="M75.7009 35.5121V34.2621H84.4282V35.5121H80.7691V45.8984H79.36V35.5121H75.7009ZM85.5149 45.8984V37.1712H86.8103V38.4893H86.9012C87.0603 38.0575 87.3482 37.7071 87.7649 37.4382C88.1815 37.1693 88.6512 37.0348 89.174 37.0348C89.2724 37.0348 89.3956 37.0367 89.5433 37.0405C89.691 37.0443 89.8027 37.05 89.8785 37.0575V38.4212C89.8331 38.4098 89.7289 38.3928 89.566 38.37C89.4069 38.3435 89.2384 38.3303 89.0603 38.3303C88.6361 38.3303 88.2573 38.4193 87.924 38.5973C87.5944 38.7715 87.3331 39.014 87.1399 39.3246C86.9505 39.6314 86.8558 39.9818 86.8558 40.3757V45.8984H85.5149ZM94.0362 46.103C93.4831 46.103 92.9813 45.9988 92.5305 45.7905C92.0797 45.5784 91.7218 45.2734 91.4566 44.8757C91.1915 44.4742 91.0589 43.9893 91.0589 43.4212C91.0589 42.9212 91.1574 42.5159 91.3544 42.2053C91.5513 41.8909 91.8146 41.6446 92.1441 41.4666C92.4737 41.2886 92.8373 41.156 93.235 41.0689C93.6366 40.978 94.04 40.906 94.4453 40.853C94.9756 40.7848 95.4055 40.7337 95.735 40.6996C96.0684 40.6617 96.3108 40.5992 96.4623 40.5121C96.6176 40.425 96.6953 40.2734 96.6953 40.0575V40.0121C96.6953 39.4515 96.5419 39.0159 96.235 38.7053C95.932 38.3946 95.4718 38.2393 94.8544 38.2393C94.2142 38.2393 93.7123 38.3795 93.3487 38.6598C92.985 38.9401 92.7294 39.2393 92.5816 39.5575L91.3089 39.103C91.5362 38.5727 91.8392 38.1598 92.218 37.8643C92.6006 37.5651 93.0172 37.3568 93.468 37.2393C93.9225 37.1181 94.3695 37.0575 94.8089 37.0575C95.0892 37.0575 95.4112 37.0916 95.7748 37.1598C96.1422 37.2242 96.4964 37.3587 96.8373 37.5632C97.182 37.7678 97.468 38.0765 97.6953 38.4893C97.9225 38.9022 98.0362 39.4553 98.0362 40.1484V45.8984H96.6953V44.7166H96.6271C96.5362 44.906 96.3847 45.1087 96.1725 45.3246C95.9604 45.5405 95.6782 45.7242 95.326 45.8757C94.9737 46.0272 94.5438 46.103 94.0362 46.103ZM94.2407 44.8984C94.771 44.8984 95.218 44.7943 95.5816 44.5859C95.9491 44.3776 96.2256 44.1087 96.4112 43.7791C96.6006 43.4496 96.6953 43.103 96.6953 42.7393V41.5121C96.6385 41.5803 96.5135 41.6428 96.3203 41.6996C96.1309 41.7526 95.9112 41.8 95.6612 41.8416C95.415 41.8795 95.1744 41.9136 94.9396 41.9439C94.7085 41.9704 94.521 41.9931 94.3771 42.0121C94.0286 42.0575 93.7028 42.1314 93.3998 42.2337C93.1006 42.3321 92.8581 42.4818 92.6725 42.6825C92.4907 42.8795 92.3998 43.1484 92.3998 43.4893C92.3998 43.9553 92.5722 44.3075 92.9169 44.5462C93.2653 44.781 93.7066 44.8984 94.2407 44.8984ZM104.029 46.0803C103.211 46.0803 102.506 45.8871 101.915 45.5007C101.325 45.1143 100.87 44.5821 100.552 43.9041C100.234 43.2261 100.075 42.4515 100.075 41.5803C100.075 40.6939 100.237 39.9117 100.563 39.2337C100.893 38.5518 101.351 38.0196 101.938 37.6371C102.529 37.2507 103.218 37.0575 104.006 37.0575C104.62 37.0575 105.173 37.1712 105.665 37.3984C106.158 37.6257 106.561 37.9439 106.876 38.353C107.19 38.7621 107.385 39.2393 107.461 39.7848H106.12C106.018 39.3871 105.79 39.0348 105.438 38.728C105.09 38.4174 104.62 38.2621 104.029 38.2621C103.506 38.2621 103.048 38.3984 102.654 38.6712C102.264 38.9401 101.959 39.3208 101.739 39.8132C101.523 40.3018 101.415 40.8757 101.415 41.5348C101.415 42.209 101.521 42.7962 101.734 43.2962C101.95 43.7962 102.253 44.1844 102.643 44.4609C103.037 44.7375 103.499 44.8757 104.029 44.8757C104.378 44.8757 104.694 44.8151 104.978 44.6939C105.262 44.5727 105.503 44.3984 105.7 44.1712C105.896 43.9439 106.037 43.6712 106.12 43.353H107.461C107.385 43.8681 107.198 44.3321 106.898 44.745C106.603 45.1541 106.211 45.4799 105.722 45.7223C105.237 45.9609 104.673 46.0803 104.029 46.0803ZM110.671 42.7166L110.648 41.0575H110.921L114.739 37.1712H116.398L112.33 41.2848H112.217L110.671 42.7166ZM109.421 45.8984V34.2621H110.762V45.8984H109.421ZM114.967 45.8984L111.557 41.5803L112.512 40.6484L116.671 45.8984H114.967ZM121.806 34.2621H123.42L126.647 39.6939H126.783L130.011 34.2621H131.624L127.42 41.103V45.8984H126.011V41.103L121.806 34.2621ZM135.576 46.0803C134.788 46.0803 134.097 45.8928 133.502 45.5178C132.911 45.1428 132.449 44.6181 132.116 43.9439C131.786 43.2696 131.621 42.4818 131.621 41.5803C131.621 40.6712 131.786 39.8776 132.116 39.1996C132.449 38.5215 132.911 37.995 133.502 37.62C134.097 37.245 134.788 37.0575 135.576 37.0575C136.364 37.0575 137.053 37.245 137.644 37.62C138.239 37.995 138.701 38.5215 139.03 39.1996C139.364 39.8776 139.53 40.6712 139.53 41.5803C139.53 42.4818 139.364 43.2696 139.03 43.9439C138.701 44.6181 138.239 45.1428 137.644 45.5178C137.053 45.8928 136.364 46.0803 135.576 46.0803ZM135.576 44.8757C136.174 44.8757 136.667 44.7223 137.053 44.4155C137.44 44.1087 137.726 43.7053 137.911 43.2053C138.097 42.7053 138.19 42.1636 138.19 41.5803C138.19 40.9969 138.097 40.4534 137.911 39.9496C137.726 39.4458 137.44 39.0386 137.053 38.728C136.667 38.4174 136.174 38.2621 135.576 38.2621C134.977 38.2621 134.485 38.4174 134.099 38.728C133.712 39.0386 133.426 39.4458 133.241 39.9496C133.055 40.4534 132.962 40.9969 132.962 41.5803C132.962 42.1636 133.055 42.7053 133.241 43.2053C133.426 43.7053 133.712 44.1087 134.099 44.4155C134.485 44.7223 134.977 44.8757 135.576 44.8757ZM147.077 42.3303V37.1712H148.418V45.8984H147.077V44.4212H146.986C146.782 44.8643 146.464 45.2412 146.032 45.5518C145.6 45.8587 145.055 46.0121 144.396 46.0121C143.85 46.0121 143.365 45.8928 142.941 45.6541C142.517 45.4117 142.183 45.0481 141.941 44.5632C141.699 44.0746 141.577 43.459 141.577 42.7166V37.1712H142.918V42.6257C142.918 43.2621 143.096 43.7696 143.452 44.1484C143.812 44.5272 144.271 44.7166 144.827 44.7166C145.161 44.7166 145.5 44.6314 145.844 44.4609C146.193 44.2905 146.485 44.0291 146.719 43.6768C146.958 43.3246 147.077 42.8757 147.077 42.3303ZM150.874 45.8984V37.1712H152.17V38.4893H152.261C152.42 38.0575 152.708 37.7071 153.124 37.4382C153.541 37.1693 154.011 37.0348 154.533 37.0348C154.632 37.0348 154.755 37.0367 154.903 37.0405C155.05 37.0443 155.162 37.05 155.238 37.0575V38.4212C155.192 38.4098 155.088 38.3928 154.925 38.37C154.766 38.3435 154.598 38.3303 154.42 38.3303C153.995 38.3303 153.617 38.4193 153.283 38.5973C152.954 38.7715 152.692 39.014 152.499 39.3246C152.31 39.6314 152.215 39.9818 152.215 40.3757V45.8984H150.874ZM172.373 37.1712C172.305 36.5954 172.028 36.1484 171.543 35.8303C171.058 35.5121 170.464 35.353 169.759 35.353C169.244 35.353 168.793 35.4363 168.407 35.603C168.024 35.7696 167.725 35.9988 167.509 36.2905C167.297 36.5821 167.191 36.9136 167.191 37.2848C167.191 37.5954 167.265 37.8625 167.413 38.0859C167.564 38.3056 167.757 38.4893 167.992 38.6371C168.227 38.781 168.473 38.9003 168.731 38.995C168.988 39.0859 169.225 39.1598 169.441 39.2166L170.623 39.5348C170.926 39.6143 171.263 39.7242 171.634 39.8643C172.009 40.0045 172.367 40.1958 172.708 40.4382C173.053 40.6768 173.337 40.9837 173.56 41.3587C173.784 41.7337 173.896 42.1939 173.896 42.7393C173.896 43.3681 173.731 43.9363 173.401 44.4439C173.075 44.9515 172.598 45.3549 171.969 45.6541C171.344 45.9534 170.585 46.103 169.691 46.103C168.858 46.103 168.136 45.9685 167.526 45.6996C166.92 45.4306 166.443 45.0556 166.094 44.5746C165.75 44.0935 165.555 43.5348 165.509 42.8984H166.964C167.002 43.3378 167.149 43.7015 167.407 43.9893C167.668 44.2734 167.998 44.4856 168.396 44.6257C168.797 44.7621 169.229 44.8303 169.691 44.8303C170.229 44.8303 170.712 44.7431 171.14 44.5689C171.568 44.3909 171.907 44.1446 172.157 43.8303C172.407 43.5121 172.532 43.1409 172.532 42.7166C172.532 42.3303 172.424 42.0159 172.208 41.7734C171.992 41.531 171.708 41.334 171.356 41.1825C171.004 41.031 170.623 40.8984 170.214 40.7848L168.782 40.3757C167.873 40.1143 167.153 39.7412 166.623 39.2564C166.093 38.7715 165.827 38.1371 165.827 37.353C165.827 36.7015 166.004 36.1333 166.356 35.6484C166.712 35.1598 167.189 34.781 167.788 34.5121C168.39 34.2393 169.062 34.103 169.805 34.103C170.555 34.103 171.221 34.2375 171.805 34.5064C172.388 34.7715 172.85 35.1352 173.191 35.5973C173.536 36.0594 173.718 36.584 173.736 37.1712H172.373ZM176.03 49.1712V37.1712H177.326V38.5575H177.485C177.584 38.406 177.72 38.2128 177.894 37.978C178.072 37.7393 178.326 37.5272 178.655 37.3416C178.989 37.1522 179.44 37.0575 180.008 37.0575C180.743 37.0575 181.39 37.2412 181.951 37.6087C182.512 37.9761 182.949 38.4969 183.263 39.1712C183.578 39.8454 183.735 40.6409 183.735 41.5575C183.735 42.4818 183.578 43.2829 183.263 43.9609C182.949 44.6352 182.513 45.1579 181.957 45.5291C181.4 45.8965 180.758 46.0803 180.03 46.0803C179.47 46.0803 179.021 45.9875 178.684 45.8018C178.347 45.6125 178.087 45.3984 177.905 45.1598C177.724 44.9174 177.584 44.7166 177.485 44.5575H177.371V49.1712H176.03ZM177.349 41.5348C177.349 42.1939 177.445 42.7753 177.638 43.2791C177.832 43.7791 178.114 44.1712 178.485 44.4553C178.856 44.7356 179.311 44.8757 179.849 44.8757C180.409 44.8757 180.877 44.728 181.252 44.4325C181.631 44.1333 181.915 43.7318 182.104 43.228C182.298 42.7204 182.394 42.156 182.394 41.5348C182.394 40.9212 182.299 40.3681 182.11 39.8757C181.924 39.3795 181.642 38.9875 181.263 38.6996C180.888 38.4079 180.417 38.2621 179.849 38.2621C179.303 38.2621 178.845 38.4003 178.474 38.6768C178.102 38.9496 177.822 39.3321 177.633 39.8246C177.443 40.3132 177.349 40.8833 177.349 41.5348ZM189.44 46.0803C188.599 46.0803 187.873 45.8946 187.263 45.5234C186.657 45.1484 186.19 44.6257 185.86 43.9553C185.534 43.281 185.371 42.4969 185.371 41.603C185.371 40.709 185.534 39.9212 185.86 39.2393C186.19 38.5537 186.648 38.0196 187.235 37.6371C187.826 37.2507 188.515 37.0575 189.303 37.0575C189.758 37.0575 190.207 37.1333 190.65 37.2848C191.093 37.4363 191.496 37.6825 191.86 38.0234C192.224 38.3606 192.513 38.8075 192.729 39.3643C192.945 39.9212 193.053 40.6068 193.053 41.4212V41.9893H186.326V40.8303H191.69C191.69 40.3378 191.591 39.8984 191.394 39.5121C191.201 39.1257 190.924 38.8208 190.565 38.5973C190.209 38.3738 189.788 38.2621 189.303 38.2621C188.769 38.2621 188.307 38.3946 187.917 38.6598C187.53 38.9212 187.233 39.2621 187.025 39.6825C186.816 40.103 186.712 40.5537 186.712 41.0348V41.8075C186.712 42.4666 186.826 43.0253 187.053 43.4837C187.284 43.9382 187.604 44.2848 188.013 44.5234C188.423 44.7583 188.898 44.8757 189.44 44.8757C189.792 44.8757 190.11 44.8265 190.394 44.728C190.682 44.6257 190.93 44.4742 191.138 44.2734C191.347 44.0689 191.508 43.8151 191.621 43.5121L192.917 43.8757C192.78 44.3151 192.551 44.7015 192.229 45.0348C191.907 45.3643 191.51 45.6219 191.036 45.8075C190.563 45.9893 190.03 46.0803 189.44 46.0803ZM196.434 40.6484V45.8984H195.093V37.1712H196.388V38.5348H196.502C196.707 38.0916 197.017 37.7356 197.434 37.4666C197.851 37.1939 198.388 37.0575 199.048 37.0575C199.638 37.0575 200.155 37.1787 200.599 37.4212C201.042 37.6598 201.387 38.0234 201.633 38.5121C201.879 38.9969 202.002 39.6106 202.002 40.353V45.8984H200.661V40.4439C200.661 39.7583 200.483 39.2242 200.127 38.8416C199.771 38.4553 199.282 38.2621 198.661 38.2621C198.233 38.2621 197.851 38.3549 197.513 38.5405C197.18 38.7261 196.917 38.9969 196.724 39.353C196.53 39.709 196.434 40.1409 196.434 40.6484ZM207.748 46.0803C207.021 46.0803 206.379 45.8965 205.822 45.5291C205.265 45.1579 204.829 44.6352 204.515 43.9609C204.2 43.2829 204.043 42.4818 204.043 41.5575C204.043 40.6409 204.2 39.8454 204.515 39.1712C204.829 38.4969 205.267 37.9761 205.827 37.6087C206.388 37.2412 207.036 37.0575 207.771 37.0575C208.339 37.0575 208.788 37.1522 209.117 37.3416C209.45 37.5272 209.704 37.7393 209.879 37.978C210.057 38.2128 210.195 38.406 210.293 38.5575H210.407V34.2621H211.748V45.8984H210.452V44.5575H210.293C210.195 44.7166 210.055 44.9174 209.873 45.1598C209.691 45.3984 209.432 45.6125 209.094 45.8018C208.757 45.9875 208.308 46.0803 207.748 46.0803ZM207.93 44.8757C208.468 44.8757 208.922 44.7356 209.293 44.4553C209.664 44.1712 209.947 43.7791 210.14 43.2791C210.333 42.7753 210.43 42.1939 210.43 41.5348C210.43 40.8833 210.335 40.3132 210.146 39.8246C209.956 39.3321 209.676 38.9496 209.305 38.6768C208.933 38.4003 208.475 38.2621 207.93 38.2621C207.361 38.2621 206.888 38.4079 206.509 38.6996C206.134 38.9875 205.852 39.3795 205.663 39.8757C205.477 40.3681 205.384 40.9212 205.384 41.5348C205.384 42.156 205.479 42.7204 205.668 43.228C205.861 43.7318 206.146 44.1333 206.521 44.4325C206.899 44.728 207.369 44.8757 207.93 44.8757ZM214.39 45.8984V37.1712H215.731V45.8984H214.39ZM215.072 35.7166C214.81 35.7166 214.585 35.6276 214.396 35.4496C214.21 35.2715 214.117 35.0575 214.117 34.8075C214.117 34.5575 214.21 34.3435 214.396 34.1655C214.585 33.9875 214.81 33.8984 215.072 33.8984C215.333 33.8984 215.557 33.9875 215.742 34.1655C215.932 34.3435 216.026 34.5575 216.026 34.8075C216.026 35.0575 215.932 35.2715 215.742 35.4496C215.557 35.6276 215.333 35.7166 215.072 35.7166ZM219.528 40.6484V45.8984H218.187V37.1712H219.482V38.5348H219.596C219.8 38.0916 220.111 37.7356 220.528 37.4666C220.944 37.1939 221.482 37.0575 222.141 37.0575C222.732 37.0575 223.249 37.1787 223.692 37.4212C224.136 37.6598 224.48 38.0234 224.727 38.5121C224.973 38.9969 225.096 39.6106 225.096 40.353V45.8984H223.755V40.4439C223.755 39.7583 223.577 39.2242 223.221 38.8416C222.865 38.4553 222.376 38.2621 221.755 38.2621C221.327 38.2621 220.944 38.3549 220.607 38.5405C220.274 38.7261 220.011 38.9969 219.817 39.353C219.624 39.709 219.528 40.1409 219.528 40.6484ZM231.069 49.353C230.421 49.353 229.864 49.2696 229.398 49.103C228.932 48.9401 228.544 48.7242 228.234 48.4553C227.927 48.1901 227.682 47.906 227.501 47.603L228.569 46.853C228.69 47.0121 228.843 47.1939 229.029 47.3984C229.215 47.6068 229.468 47.7867 229.79 47.9382C230.116 48.0935 230.542 48.1712 231.069 48.1712C231.773 48.1712 232.355 48.0007 232.813 47.6598C233.271 47.3189 233.501 46.7848 233.501 46.0575V44.2848H233.387C233.289 44.4439 233.148 44.6409 232.967 44.8757C232.789 45.1068 232.531 45.3132 232.194 45.495C231.861 45.6731 231.41 45.7621 230.842 45.7621C230.137 45.7621 229.504 45.5954 228.944 45.2621C228.387 44.9287 227.946 44.4439 227.62 43.8075C227.298 43.1712 227.137 42.3984 227.137 41.4893C227.137 40.5954 227.294 39.817 227.609 39.1541C227.923 38.4875 228.361 37.9723 228.921 37.6087C229.482 37.2412 230.129 37.0575 230.864 37.0575C231.432 37.0575 231.883 37.1522 232.217 37.3416C232.554 37.5272 232.811 37.7393 232.989 37.978C233.171 38.2128 233.311 38.406 233.41 38.5575H233.546V37.1712H234.842V46.1484C234.842 46.8984 234.671 47.5083 234.33 47.978C233.993 48.4515 233.539 48.7981 232.967 49.0178C232.398 49.2412 231.766 49.353 231.069 49.353ZM231.023 44.5575C231.561 44.5575 232.016 44.4344 232.387 44.1882C232.758 43.942 233.04 43.5878 233.234 43.1257C233.427 42.6636 233.523 42.1106 233.523 41.4666C233.523 40.8378 233.429 40.2829 233.239 39.8018C233.05 39.3208 232.77 38.9439 232.398 38.6712C232.027 38.3984 231.569 38.2621 231.023 38.2621C230.455 38.2621 229.982 38.406 229.603 38.6939C229.228 38.9818 228.946 39.3681 228.756 39.853C228.571 40.3378 228.478 40.8757 228.478 41.4666C228.478 42.0727 228.573 42.6087 228.762 43.0746C228.955 43.5367 229.239 43.9003 229.614 44.1655C229.993 44.4268 230.463 44.5575 231.023 44.5575ZM243.478 39.1257L242.273 39.4666C242.198 39.2659 242.086 39.0708 241.938 38.8814C241.794 38.6882 241.597 38.5291 241.347 38.4041C241.097 38.2791 240.777 38.2166 240.387 38.2166C239.853 38.2166 239.408 38.3397 239.052 38.5859C238.7 38.8284 238.523 39.1371 238.523 39.5121C238.523 39.8454 238.645 40.1087 238.887 40.3018C239.129 40.495 239.508 40.656 240.023 40.7848L241.319 41.103C242.099 41.2924 242.681 41.5821 243.063 41.9723C243.446 42.3587 243.637 42.8568 243.637 43.4666C243.637 43.9666 243.493 44.4136 243.205 44.8075C242.921 45.2015 242.523 45.5121 242.012 45.7393C241.501 45.9666 240.906 46.0803 240.228 46.0803C239.338 46.0803 238.601 45.8871 238.018 45.5007C237.434 45.1143 237.065 44.55 236.91 43.8075L238.182 43.4893C238.304 43.959 238.533 44.3113 238.87 44.5462C239.211 44.781 239.656 44.8984 240.205 44.8984C240.83 44.8984 241.326 44.7659 241.694 44.5007C242.065 44.2318 242.251 43.9098 242.251 43.5348C242.251 43.2318 242.145 42.978 241.932 42.7734C241.72 42.5651 241.395 42.4098 240.955 42.3075L239.501 41.9666C238.701 41.7772 238.114 41.4837 237.739 41.0859C237.368 40.6844 237.182 40.1825 237.182 39.5803C237.182 39.0878 237.321 38.6522 237.597 38.2734C237.878 37.8946 238.258 37.5973 238.739 37.3814C239.224 37.1655 239.773 37.0575 240.387 37.0575C241.251 37.0575 241.929 37.2469 242.421 37.6257C242.917 38.0045 243.27 38.5045 243.478 39.1257Z" fill="#2B2B2B"/>
</g>
<defs>
<filter id="filter0_d_64_253" x="0.928223" y="0.398438" width="284" height="88" filterUnits="userSpaceOnUse" color-interpolation-filters="sRGB">
<feFlood flood-opacity="0" result="BackgroundImageFix"/>
<feColorMatrix in="SourceAlpha" type="matrix" values="0 0 0 0 0 0 0 0 0 0 0 0 0 0 0 0 0 0 127 0" result="hardAlpha"/>
<feOffset dy="4"/>
<feGaussianBlur stdDeviation="8"/>
<feComposite in2="hardAlpha" operator="out"/>
<feColorMatrix type="matrix" values="0 0 0 0 0 0 0 0 0 0 0 0 0 0 0 0 0 0 0.15 0"/>
<feBlend mode="normal" in2="BackgroundImageFix" result="effect1_dropShadow_64_253"/>
<feBlend mode="normal" in="SourceGraphic" in2="effect1_dropShadow_64_253" result="shape"/>
</filter>
</defs>
</svg>
