<svg width="243" height="89" viewBox="0 0 243 89" fill="none" xmlns="http://www.w3.org/2000/svg">
<g filter="url(#filter0_d_64_249)">
<rect x="16" y="12.0479" width="211" height="56" rx="8" fill="white" shape-rendering="crispEdges"/>
<path d="M53 38.0479V31.0479L44 42.0479H51V49.0479L60 38.0479H53Z" stroke="#888888" stroke-width="2" stroke-linecap="round" stroke-linejoin="round"/>
<path d="M75.4091 45.5479V33.9115H82.3864V35.1615H76.8182V39.0933H81.8636V40.3433H76.8182V45.5479H75.4091ZM87.1861 45.7524C86.633 45.7524 86.1312 45.6482 85.6804 45.4399C85.2296 45.2278 84.8717 44.9229 84.6065 44.5251C84.3414 44.1236 84.2088 43.6388 84.2088 43.0706C84.2088 42.5706 84.3073 42.1653 84.5043 41.8547C84.7012 41.5403 84.9645 41.2941 85.294 41.116C85.6236 40.938 85.9872 40.8054 86.3849 40.7183C86.7865 40.6274 87.1899 40.5554 87.5952 40.5024C88.1255 40.4342 88.5554 40.3831 88.8849 40.349C89.2183 40.3111 89.4607 40.2486 89.6122 40.1615C89.7675 40.0744 89.8452 39.9229 89.8452 39.7069V39.6615C89.8452 39.1009 89.6918 38.6653 89.3849 38.3547C89.0819 38.0441 88.6217 37.8888 88.0043 37.8888C87.3641 37.8888 86.8622 38.0289 86.4986 38.3092C86.1349 38.5895 85.8793 38.8888 85.7315 39.2069L84.4588 38.7524C84.6861 38.2221 84.9891 37.8092 85.3679 37.5138C85.7505 37.2145 86.1671 37.0062 86.6179 36.8888C87.0724 36.7675 87.5194 36.7069 87.9588 36.7069C88.2391 36.7069 88.5611 36.741 88.9247 36.8092C89.2921 36.8736 89.6463 37.0081 89.9872 37.2126C90.3319 37.4172 90.6179 37.7259 90.8452 38.1388C91.0724 38.5516 91.1861 39.1047 91.1861 39.7979V45.5479H89.8452V44.366H89.777C89.6861 44.5554 89.5346 44.7581 89.3224 44.974C89.1103 45.1899 88.8281 45.3736 88.4759 45.5251C88.1236 45.6766 87.6937 45.7524 87.1861 45.7524ZM87.3906 44.5479C87.9209 44.5479 88.3679 44.4437 88.7315 44.2354C89.099 44.027 89.3755 43.7581 89.5611 43.4285C89.7505 43.099 89.8452 42.7524 89.8452 42.3888V41.1615C89.7884 41.2297 89.6634 41.2922 89.4702 41.349C89.2808 41.402 89.0611 41.4494 88.8111 41.491C88.5649 41.5289 88.3243 41.563 88.0895 41.5933C87.8584 41.6198 87.6709 41.6425 87.527 41.6615C87.1785 41.7069 86.8527 41.7808 86.5497 41.8831C86.2505 41.9816 86.008 42.1312 85.8224 42.3319C85.6406 42.5289 85.5497 42.7979 85.5497 43.1388C85.5497 43.6047 85.7221 43.9569 86.0668 44.1956C86.4152 44.4304 86.8565 44.5479 87.3906 44.5479ZM99.8153 38.7751L98.6108 39.116C98.535 38.9153 98.4233 38.7202 98.2756 38.5308C98.1316 38.3376 97.9347 38.1785 97.6847 38.0535C97.4347 37.9285 97.1146 37.866 96.7244 37.866C96.1903 37.866 95.7453 37.9891 95.3892 38.2354C95.0369 38.4778 94.8608 38.7865 94.8608 39.1615C94.8608 39.4948 94.982 39.7581 95.2244 39.9513C95.4669 40.1444 95.8456 40.3054 96.3608 40.4342L97.6562 40.7524C98.4366 40.9418 99.018 41.2316 99.4006 41.6217C99.7831 42.0081 99.9744 42.5062 99.9744 43.116C99.9744 43.616 99.8305 44.063 99.5426 44.4569C99.2585 44.8509 98.8608 45.1615 98.3494 45.3888C97.8381 45.616 97.2434 45.7297 96.5653 45.7297C95.6752 45.7297 94.9384 45.5365 94.3551 45.1501C93.7718 44.7638 93.4025 44.1994 93.2472 43.4569L94.5199 43.1388C94.6411 43.6085 94.8703 43.9607 95.2074 44.1956C95.5483 44.4304 95.9934 44.5479 96.5426 44.5479C97.1676 44.5479 97.6638 44.4153 98.0312 44.1501C98.4025 43.8812 98.5881 43.5592 98.5881 43.1842C98.5881 42.8812 98.482 42.6274 98.2699 42.4229C98.0578 42.2145 97.732 42.0592 97.2926 41.9569L95.8381 41.616C95.0388 41.4266 94.4517 41.1331 94.0767 40.7354C93.7055 40.3338 93.5199 39.8319 93.5199 39.2297C93.5199 38.7372 93.6581 38.3016 93.9347 37.9229C94.215 37.5441 94.5956 37.2467 95.0767 37.0308C95.5616 36.8149 96.1108 36.7069 96.7244 36.7069C97.5881 36.7069 98.2661 36.8963 98.7585 37.2751C99.2547 37.6539 99.607 38.1539 99.8153 38.7751ZM105.788 36.8206V37.9569H101.266V36.8206H105.788ZM102.584 34.7297H103.925V43.0479C103.925 43.4266 103.98 43.7107 104.089 43.9001C104.203 44.0857 104.347 44.2107 104.521 44.2751C104.699 44.3357 104.887 44.366 105.084 44.366C105.232 44.366 105.353 44.3585 105.447 44.3433C105.542 44.3244 105.618 44.3092 105.675 44.2979L105.947 45.5024C105.857 45.5365 105.73 45.5706 105.567 45.6047C105.404 45.6425 105.197 45.6615 104.947 45.6615C104.569 45.6615 104.197 45.58 103.834 45.4172C103.474 45.2543 103.175 45.0062 102.936 44.6729C102.701 44.3395 102.584 43.9191 102.584 43.4115V34.7297ZM114.874 45.7524C114.321 45.7524 113.819 45.6482 113.368 45.4399C112.917 45.2278 112.559 44.9229 112.294 44.5251C112.029 44.1236 111.896 43.6388 111.896 43.0706C111.896 42.5706 111.995 42.1653 112.192 41.8547C112.389 41.5403 112.652 41.2941 112.982 41.116C113.311 40.938 113.675 40.8054 114.072 40.7183C114.474 40.6274 114.877 40.5554 115.283 40.5024C115.813 40.4342 116.243 40.3831 116.572 40.349C116.906 40.3111 117.148 40.2486 117.3 40.1615C117.455 40.0744 117.533 39.9229 117.533 39.7069V39.6615C117.533 39.1009 117.379 38.6653 117.072 38.3547C116.769 38.0441 116.309 37.8888 115.692 37.8888C115.052 37.8888 114.55 38.0289 114.186 38.3092C113.822 38.5895 113.567 38.8888 113.419 39.2069L112.146 38.7524C112.374 38.2221 112.677 37.8092 113.055 37.5138C113.438 37.2145 113.855 37.0062 114.305 36.8888C114.76 36.7675 115.207 36.7069 115.646 36.7069C115.927 36.7069 116.249 36.741 116.612 36.8092C116.98 36.8736 117.334 37.0081 117.675 37.2126C118.019 37.4172 118.305 37.7259 118.533 38.1388C118.76 38.5516 118.874 39.1047 118.874 39.7979V45.5479H117.533V44.366H117.464C117.374 44.5554 117.222 44.7581 117.01 44.974C116.798 45.1899 116.516 45.3736 116.163 45.5251C115.811 45.6766 115.381 45.7524 114.874 45.7524ZM115.078 44.5479C115.608 44.5479 116.055 44.4437 116.419 44.2354C116.786 44.027 117.063 43.7581 117.249 43.4285C117.438 43.099 117.533 42.7524 117.533 42.3888V41.1615C117.476 41.2297 117.351 41.2922 117.158 41.349C116.968 41.402 116.749 41.4494 116.499 41.491C116.252 41.5289 116.012 41.563 115.777 41.5933C115.546 41.6198 115.358 41.6425 115.214 41.6615C114.866 41.7069 114.54 41.7808 114.237 41.8831C113.938 41.9816 113.696 42.1312 113.51 42.3319C113.328 42.5289 113.237 42.7979 113.237 43.1388C113.237 43.6047 113.41 43.9569 113.754 44.1956C114.103 44.4304 114.544 44.5479 115.078 44.5479ZM122.662 40.2979V45.5479H121.321V36.8206H122.616V38.1842H122.73C122.935 37.741 123.245 37.385 123.662 37.116C124.079 36.8433 124.616 36.7069 125.276 36.7069C125.866 36.7069 126.384 36.8282 126.827 37.0706C127.27 37.3092 127.615 37.6729 127.861 38.1615C128.107 38.6463 128.23 39.26 128.23 40.0024V45.5479H126.889V40.0933C126.889 39.4077 126.711 38.8736 126.355 38.491C125.999 38.1047 125.51 37.9115 124.889 37.9115C124.461 37.9115 124.079 38.0043 123.741 38.1899C123.408 38.3755 123.145 38.6463 122.952 39.0024C122.759 39.3585 122.662 39.7903 122.662 40.2979ZM133.976 45.7297C133.249 45.7297 132.607 45.546 132.05 45.1785C131.493 44.8073 131.057 44.2846 130.743 43.6104C130.429 42.9323 130.271 42.1312 130.271 41.2069C130.271 40.2903 130.429 39.4948 130.743 38.8206C131.057 38.1463 131.495 37.6255 132.055 37.2581C132.616 36.8907 133.264 36.7069 133.999 36.7069C134.567 36.7069 135.016 36.8016 135.345 36.991C135.679 37.1766 135.932 37.3888 136.107 37.6274C136.285 37.8622 136.423 38.0554 136.521 38.2069H136.635V33.9115H137.976V45.5479H136.68V44.2069H136.521C136.423 44.366 136.283 44.5668 136.101 44.8092C135.919 45.0479 135.66 45.2619 135.322 45.4513C134.985 45.6369 134.536 45.7297 133.976 45.7297ZM134.158 44.5251C134.696 44.5251 135.15 44.385 135.521 44.1047C135.893 43.8206 136.175 43.4285 136.368 42.9285C136.561 42.4247 136.658 41.8433 136.658 41.1842C136.658 40.5327 136.563 39.9626 136.374 39.474C136.184 38.9816 135.904 38.599 135.533 38.3263C135.161 38.0497 134.703 37.9115 134.158 37.9115C133.589 37.9115 133.116 38.0573 132.737 38.349C132.362 38.6369 132.08 39.0289 131.891 39.5251C131.705 40.0175 131.612 40.5706 131.612 41.1842C131.612 41.8054 131.707 42.3698 131.896 42.8774C132.089 43.3812 132.374 43.7827 132.749 44.0819C133.127 44.3774 133.597 44.5251 134.158 44.5251ZM145.3 45.5479V33.9115H149.232C150.141 33.9115 150.887 34.0668 151.47 34.3774C152.054 34.6842 152.485 35.1066 152.766 35.6444C153.046 36.1823 153.186 36.7941 153.186 37.4797C153.186 38.1653 153.046 38.7732 152.766 39.3035C152.485 39.8338 152.055 40.2505 151.476 40.5535C150.896 40.8528 150.156 41.0024 149.254 41.0024H146.072V39.7297H149.209C149.83 39.7297 150.33 39.6388 150.709 39.4569C151.091 39.2751 151.368 39.0175 151.538 38.6842C151.713 38.3471 151.8 37.9456 151.8 37.4797C151.8 37.0138 151.713 36.6066 151.538 36.2581C151.364 35.9096 151.086 35.6407 150.703 35.4513C150.321 35.2581 149.815 35.1615 149.186 35.1615H146.709V45.5479H145.3ZM150.777 40.3206L153.641 45.5479H152.004L149.186 40.3206H150.777ZM158.918 45.7297C158.077 45.7297 157.351 45.5441 156.741 45.1729C156.135 44.7979 155.668 44.2751 155.338 43.6047C155.012 42.9304 154.849 42.1463 154.849 41.2524C154.849 40.3585 155.012 39.5706 155.338 38.8888C155.668 38.2032 156.126 37.6691 156.713 37.2865C157.304 36.9001 157.993 36.7069 158.781 36.7069C159.236 36.7069 159.685 36.7827 160.128 36.9342C160.571 37.0857 160.974 37.3319 161.338 37.6729C161.702 38.01 161.991 38.4569 162.207 39.0138C162.423 39.5706 162.531 40.2562 162.531 41.0706V41.6388H155.804V40.4797H161.168C161.168 39.9872 161.069 39.5479 160.872 39.1615C160.679 38.7751 160.402 38.4702 160.043 38.2467C159.687 38.0232 159.266 37.9115 158.781 37.9115C158.247 37.9115 157.785 38.0441 157.395 38.3092C157.009 38.5706 156.711 38.9115 156.503 39.3319C156.295 39.7524 156.19 40.2032 156.19 40.6842V41.4569C156.19 42.116 156.304 42.6747 156.531 43.1331C156.762 43.5876 157.082 43.9342 157.491 44.1729C157.901 44.4077 158.376 44.5251 158.918 44.5251C159.27 44.5251 159.588 44.4759 159.872 44.3774C160.16 44.2751 160.408 44.1236 160.616 43.9229C160.825 43.7183 160.986 43.4645 161.099 43.1615L162.395 43.5251C162.259 43.9645 162.029 44.3509 161.707 44.6842C161.385 45.0138 160.988 45.2713 160.514 45.4569C160.041 45.6388 159.509 45.7297 158.918 45.7297ZM165.912 33.9115V45.5479H164.571V33.9115H165.912ZM168.368 45.5479V36.8206H169.709V45.5479H168.368ZM169.05 35.366C168.788 35.366 168.563 35.277 168.374 35.099C168.188 34.921 168.095 34.7069 168.095 34.4569C168.095 34.2069 168.188 33.9929 168.374 33.8149C168.563 33.6369 168.788 33.5479 169.05 33.5479C169.311 33.5479 169.535 33.6369 169.72 33.8149C169.91 33.9929 170.004 34.2069 170.004 34.4569C170.004 34.7069 169.91 34.921 169.72 35.099C169.535 35.277 169.311 35.366 169.05 35.366ZM174.733 45.7524C174.18 45.7524 173.678 45.6482 173.227 45.4399C172.777 45.2278 172.419 44.9229 172.153 44.5251C171.888 44.1236 171.756 43.6388 171.756 43.0706C171.756 42.5706 171.854 42.1653 172.051 41.8547C172.248 41.5403 172.511 41.2941 172.841 41.116C173.17 40.938 173.534 40.8054 173.932 40.7183C174.333 40.6274 174.737 40.5554 175.142 40.5024C175.672 40.4342 176.102 40.3831 176.432 40.349C176.765 40.3111 177.008 40.2486 177.159 40.1615C177.314 40.0744 177.392 39.9229 177.392 39.7069V39.6615C177.392 39.1009 177.239 38.6653 176.932 38.3547C176.629 38.0441 176.169 37.8888 175.551 37.8888C174.911 37.8888 174.409 38.0289 174.045 38.3092C173.682 38.5895 173.426 38.8888 173.278 39.2069L172.006 38.7524C172.233 38.2221 172.536 37.8092 172.915 37.5138C173.297 37.2145 173.714 37.0062 174.165 36.8888C174.619 36.7675 175.066 36.7069 175.506 36.7069C175.786 36.7069 176.108 36.741 176.472 36.8092C176.839 36.8736 177.193 37.0081 177.534 37.2126C177.879 37.4172 178.165 37.7259 178.392 38.1388C178.619 38.5516 178.733 39.1047 178.733 39.7979V45.5479H177.392V44.366H177.324C177.233 44.5554 177.081 44.7581 176.869 44.974C176.657 45.1899 176.375 45.3736 176.023 45.5251C175.67 45.6766 175.241 45.7524 174.733 45.7524ZM174.938 44.5479C175.468 44.5479 175.915 44.4437 176.278 44.2354C176.646 44.027 176.922 43.7581 177.108 43.4285C177.297 43.099 177.392 42.7524 177.392 42.3888V41.1615C177.335 41.2297 177.21 41.2922 177.017 41.349C176.828 41.402 176.608 41.4494 176.358 41.491C176.112 41.5289 175.871 41.563 175.636 41.5933C175.405 41.6198 175.218 41.6425 175.074 41.6615C174.725 41.7069 174.4 41.7808 174.097 41.8831C173.797 41.9816 173.555 42.1312 173.369 42.3319C173.188 42.5289 173.097 42.7979 173.097 43.1388C173.097 43.6047 173.269 43.9569 173.614 44.1956C173.962 44.4304 174.403 44.5479 174.938 44.5479ZM181.362 45.5479V33.9115H182.703V38.2069H182.817C182.915 38.0554 183.052 37.8622 183.226 37.6274C183.404 37.3888 183.658 37.1766 183.987 36.991C184.321 36.8016 184.771 36.7069 185.339 36.7069C186.074 36.7069 186.722 36.8907 187.283 37.2581C187.843 37.6255 188.281 38.1463 188.595 38.8206C188.91 39.4948 189.067 40.2903 189.067 41.2069C189.067 42.1312 188.91 42.9323 188.595 43.6104C188.281 44.2846 187.845 44.8073 187.288 45.1785C186.732 45.546 186.089 45.7297 185.362 45.7297C184.802 45.7297 184.353 45.6369 184.016 45.4513C183.679 45.2619 183.419 45.0479 183.237 44.8092C183.055 44.5668 182.915 44.366 182.817 44.2069H182.658V45.5479H181.362ZM182.68 41.1842C182.68 41.8433 182.777 42.4247 182.97 42.9285C183.163 43.4285 183.446 43.8206 183.817 44.1047C184.188 44.385 184.643 44.5251 185.18 44.5251C185.741 44.5251 186.209 44.3774 186.584 44.0819C186.963 43.7827 187.247 43.3812 187.436 42.8774C187.629 42.3698 187.726 41.8054 187.726 41.1842C187.726 40.5706 187.631 40.0175 187.442 39.5251C187.256 39.0289 186.974 38.6369 186.595 38.349C186.22 38.0573 185.749 37.9115 185.18 37.9115C184.635 37.9115 184.177 38.0497 183.805 38.3263C183.434 38.599 183.154 38.9816 182.964 39.474C182.775 39.9626 182.68 40.5327 182.68 41.1842ZM192.459 33.9115V45.5479H191.118V33.9115H192.459ZM198.574 45.7297C197.733 45.7297 197.008 45.5441 196.398 45.1729C195.792 44.7979 195.324 44.2751 194.994 43.6047C194.669 42.9304 194.506 42.1463 194.506 41.2524C194.506 40.3585 194.669 39.5706 194.994 38.8888C195.324 38.2032 195.782 37.6691 196.369 37.2865C196.96 36.9001 197.65 36.7069 198.438 36.7069C198.892 36.7069 199.341 36.7827 199.784 36.9342C200.227 37.0857 200.631 37.3319 200.994 37.6729C201.358 38.01 201.648 38.4569 201.864 39.0138C202.08 39.5706 202.188 40.2562 202.188 41.0706V41.6388H195.46V40.4797H200.824C200.824 39.9872 200.725 39.5479 200.528 39.1615C200.335 38.7751 200.059 38.4702 199.699 38.2467C199.343 38.0232 198.922 37.9115 198.438 37.9115C197.903 37.9115 197.441 38.0441 197.051 38.3092C196.665 38.5706 196.367 38.9115 196.159 39.3319C195.951 39.7524 195.847 40.2032 195.847 40.6842V41.4569C195.847 42.116 195.96 42.6747 196.188 43.1331C196.419 43.5876 196.739 43.9342 197.148 44.1729C197.557 44.4077 198.032 44.5251 198.574 44.5251C198.926 44.5251 199.244 44.4759 199.528 44.3774C199.816 44.2751 200.064 44.1236 200.273 43.9229C200.481 43.7183 200.642 43.4645 200.756 43.1615L202.051 43.5251C201.915 43.9645 201.686 44.3509 201.364 44.6842C201.042 45.0138 200.644 45.2713 200.17 45.4569C199.697 45.6388 199.165 45.7297 198.574 45.7297Z" fill="#2B2B2B"/>
</g>
<defs>
<filter id="filter0_d_64_249" x="0" y="0.0478516" width="243" height="88" filterUnits="userSpaceOnUse" color-interpolation-filters="sRGB">
<feFlood flood-opacity="0" result="BackgroundImageFix"/>
<feColorMatrix in="SourceAlpha" type="matrix" values="0 0 0 0 0 0 0 0 0 0 0 0 0 0 0 0 0 0 127 0" result="hardAlpha"/>
<feOffset dy="4"/>
<feGaussianBlur stdDeviation="8"/>
<feComposite in2="hardAlpha" operator="out"/>
<feColorMatrix type="matrix" values="0 0 0 0 0 0 0 0 0 0 0 0 0 0 0 0 0 0 0.15 0"/>
<feBlend mode="normal" in2="BackgroundImageFix" result="effect1_dropShadow_64_249"/>
<feBlend mode="normal" in="SourceGraphic" in2="effect1_dropShadow_64_249" result="shape"/>
</filter>
</defs>
</svg>
