<svg width="196" height="188" viewBox="0 0 196 188" fill="none" xmlns="http://www.w3.org/2000/svg">
<path fill-rule="evenodd" clip-rule="evenodd" d="M109.192 3.16376C127.989 7.8591 136.139 27.8387 150.39 40.9644C165.861 55.2134 193.243 61.1996 194.964 82.162C196.699 103.291 171.195 114.33 157.759 130.729C141.46 150.624 134.788 184.342 109.192 186.853C83.4488 189.378 68.195 159.739 50.0618 141.292C32.1891 123.111 8.171 107.587 6.28013 82.162C4.3085 55.6512 19.4726 29.7174 40.56 13.53C59.6392 -1.11569 85.8568 -2.66516 109.192 3.16376Z" fill="#F2F2F2"/>
<g clip-path="url(#clip0_485_381)">
<path d="M89.2348 35.6959H53.3657C52.5483 35.6969 51.7647 36.022 51.1867 36.6C50.6087 37.178 50.2835 37.9616 50.2826 38.779V118.498L49.8715 118.624L41.0722 121.318C40.6552 121.446 40.2048 121.402 39.8198 121.197C39.4348 120.993 39.1468 120.644 39.0189 120.227L12.8451 34.7319C12.7178 34.3148 12.7612 33.8643 12.9658 33.4793C13.1705 33.0942 13.5196 32.8062 13.9366 32.6785L27.4962 28.5266L66.8061 16.4941L80.3656 12.3422C80.572 12.2787 80.7889 12.2565 81.0038 12.2769C81.2187 12.2973 81.4275 12.3598 81.6183 12.461C81.809 12.5622 81.9779 12.7 82.1153 12.8666C82.2527 13.0331 82.3559 13.2251 82.4191 13.4316L89.1094 35.2848L89.2348 35.6959Z" fill="#E3E3E3"/>
<path d="M97.062 35.2865L88.9986 8.94835C88.8644 8.5095 88.6451 8.1014 88.3532 7.74735C88.0612 7.39329 87.7024 7.10024 87.2972 6.88493C86.8919 6.66961 86.4482 6.53626 85.9914 6.49249C85.5346 6.44872 85.0737 6.49539 84.6349 6.62983L65.5709 12.4652L26.2632 24.4997L7.19914 30.337C6.31352 30.609 5.57199 31.2212 5.1373 32.0393C4.7026 32.8574 4.61027 33.8146 4.88056 34.7007L32.4396 124.714C32.6592 125.429 33.1023 126.055 33.7038 126.5C34.3053 126.945 35.0336 127.186 35.7818 127.186C36.1281 127.187 36.4725 127.135 36.8033 127.032L49.8717 123.032L50.2827 122.905V122.475L49.8717 122.601L36.6821 126.64C35.9003 126.878 35.056 126.796 34.3343 126.413C33.6126 126.03 33.0724 125.376 32.8323 124.594L5.27529 34.5794C5.1563 34.1924 5.11483 33.7857 5.15325 33.3825C5.19167 32.9794 5.30922 32.5879 5.49919 32.2303C5.68915 31.8727 5.9478 31.5561 6.26031 31.2985C6.57281 31.041 6.93304 30.8477 7.32037 30.7296L26.3844 24.8922L65.6923 12.8598L84.7563 7.02242C85.0501 6.93276 85.3555 6.88705 85.6626 6.88676C86.3219 6.88824 86.9633 7.10077 87.4929 7.4932C88.0226 7.88563 88.4127 8.43736 88.6061 9.06756L96.6324 35.2865L96.7599 35.6976H97.1874L97.062 35.2865Z" fill="#DEDEDE"/>
<path d="M29.9427 32.7445C29.5465 32.7443 29.1609 32.617 28.8423 32.3815C28.5238 32.146 28.2891 31.8146 28.1727 31.4359L25.5252 22.7884C25.4541 22.5561 25.4294 22.3121 25.4526 22.0703C25.4758 21.8284 25.5464 21.5935 25.6603 21.379C25.7743 21.1645 25.9294 20.9745 26.1168 20.8199C26.3042 20.6653 26.5203 20.5491 26.7526 20.4781L62.9154 9.4068C63.3845 9.26364 63.8913 9.31247 64.3245 9.54255C64.7576 9.77263 65.0818 10.1652 65.2259 10.634L67.8733 19.2816C68.0164 19.7508 67.9675 20.2575 67.7374 20.6906C67.5074 21.1238 67.1149 21.448 66.6461 21.5921L30.4831 32.6633C30.308 32.7171 30.1259 32.7445 29.9427 32.7445Z" fill="#CECFEF"/>
<path d="M43.8112 15.7139C46.0815 15.7139 47.922 13.8734 47.922 11.603C47.922 9.33267 46.0815 7.49219 43.8112 7.49219C41.5408 7.49219 39.7003 9.33267 39.7003 11.603C39.7003 13.8734 41.5408 15.7139 43.8112 15.7139Z" fill="#CECFEF"/>
<path d="M43.8109 14.2043C45.2486 14.2043 46.414 13.0388 46.414 11.6012C46.414 10.1635 45.2486 8.99805 43.8109 8.99805C42.3733 8.99805 41.2078 10.1635 41.2078 11.6012C41.2078 13.0388 42.3733 14.2043 43.8109 14.2043Z" fill="white"/>
<path d="M128.593 126.133H59.1203C58.6571 126.133 58.213 125.948 57.8855 125.621C57.5579 125.293 57.3737 124.849 57.3732 124.386V41.1416C57.3737 40.6784 57.5579 40.2344 57.8855 39.9068C58.213 39.5793 58.6571 39.395 59.1203 39.3945H128.593C129.057 39.3951 129.501 39.5793 129.828 39.9068C130.156 40.2344 130.34 40.6784 130.341 41.1416V124.386C130.34 124.849 130.156 125.293 129.828 125.621C129.501 125.948 129.057 126.133 128.593 126.133Z" fill="#E3E3E3"/>
<path d="M96.6319 35.2832H53.3654C52.439 35.2845 51.551 35.6531 50.896 36.3081C50.241 36.9631 49.8725 37.8511 49.8712 38.7774V122.597L50.2822 122.472V38.7774C50.2832 37.96 50.6084 37.1764 51.1864 36.5984C51.7643 36.0204 52.548 35.6953 53.3654 35.6943H96.7594L96.6319 35.2832ZM134.349 35.2832H53.3654C52.439 35.2845 51.551 35.6531 50.896 36.3081C50.241 36.9631 49.8725 37.8511 49.8712 38.7774V132.916C49.8725 133.842 50.241 134.73 50.896 135.385C51.551 136.04 52.439 136.409 53.3654 136.41H134.349C135.275 136.409 136.163 136.04 136.818 135.385C137.473 134.73 137.842 133.842 137.843 132.916V38.7774C137.842 37.8511 137.473 36.9631 136.818 36.3081C136.163 35.6531 135.275 35.2845 134.349 35.2832ZM137.432 132.916C137.431 133.733 137.106 134.517 136.528 135.095C135.95 135.673 135.166 135.998 134.349 135.999H53.3654C52.548 135.998 51.7643 135.673 51.1864 135.095C50.6084 134.517 50.2832 133.733 50.2822 132.916V38.7774C50.2832 37.96 50.6084 37.1764 51.1864 36.5984C51.7643 36.0204 52.548 35.6953 53.3654 35.6943H134.349C135.166 35.6953 135.95 36.0204 136.528 36.5984C137.106 37.1764 137.431 37.96 137.432 38.7774V132.916Z" fill="#DEDEDE"/>
<path d="M112.766 44.3276H74.9466C74.4561 44.327 73.9859 44.132 73.6391 43.7852C73.2923 43.4384 73.0972 42.9682 73.0967 42.4777V33.4339C73.0972 32.9434 73.2923 32.4732 73.6391 32.1264C73.9859 31.7796 74.4561 31.5845 74.9466 31.584H112.766C113.257 31.5845 113.727 31.7796 114.074 32.1264C114.421 32.4732 114.616 32.9434 114.616 33.4339V42.4777C114.616 42.9682 114.421 43.4384 114.074 43.7852C113.727 44.132 113.257 44.327 112.766 44.3276Z" fill="#CECFEF"/>
<path d="M93.8565 32.2002C96.1269 32.2002 97.9673 30.3597 97.9673 28.0894C97.9673 25.819 96.1269 23.9785 93.8565 23.9785C91.5862 23.9785 89.7457 25.819 89.7457 28.0894C89.7457 30.3597 91.5862 32.2002 93.8565 32.2002Z" fill="#CECFEF"/>
<path d="M93.8565 30.5957C95.2393 30.5957 96.3604 29.4746 96.3604 28.0918C96.3604 26.7089 95.2393 25.5879 93.8565 25.5879C92.4736 25.5879 91.3526 26.7089 91.3526 28.0918C91.3526 29.4746 92.4736 30.5957 93.8565 30.5957Z" fill="white"/>
</g>
<g clip-path="url(#clip1_485_381)">
<path d="M6.27433 46.2374C7.00759 46.2374 7.60201 45.643 7.60201 44.9097C7.60201 44.1765 7.00759 43.582 6.27433 43.582C5.54108 43.582 4.94666 44.1765 4.94666 44.9097C4.94666 45.643 5.54108 46.2374 6.27433 46.2374Z" fill="white"/>
<path d="M11.3139 46.2374C12.0472 46.2374 12.6416 45.643 12.6416 44.9097C12.6416 44.1765 12.0472 43.582 11.3139 43.582C10.5807 43.582 9.98627 44.1765 9.98627 44.9097C9.98627 45.643 10.5807 46.2374 11.3139 46.2374Z" fill="white"/>
<path d="M16.3535 46.2374C17.0868 46.2374 17.6812 45.643 17.6812 44.9097C17.6812 44.1765 17.0868 43.582 16.3535 43.582C15.6202 43.582 15.0258 44.1765 15.0258 44.9097C15.0258 45.643 15.6202 46.2374 16.3535 46.2374Z" fill="white"/>
<path d="M102.228 64.0254H68.1879V83.2338H102.228V64.0254Z" fill="#CECFEF"/>
<path d="M102.228 88.5781H68.1879V109.245H102.228V88.5781Z" fill="#E6E6E6"/>
<path d="M102.228 114.598H68.1879V133.806H102.228V114.598Z" fill="#E6E6E6"/>
<path d="M150.37 103.393H109.522V133.803H150.37V103.393Z" fill="#E6E6E6"/>
<path d="M134.634 96.6208V90.0738C134.634 87.747 135.558 85.5156 137.203 83.8703C138.848 82.2251 141.08 81.3008 143.407 81.3008C145.733 81.3008 147.965 82.2251 149.61 83.8703C151.255 85.5156 152.18 87.747 152.18 90.0738V96.6208C152.179 96.9332 152.055 97.2328 151.834 97.4537C151.613 97.6746 151.314 97.7989 151.001 97.7992H135.812C135.5 97.7989 135.2 97.6746 134.979 97.4537C134.758 97.2328 134.634 96.9332 134.634 96.6208Z" fill="#2F2E41"/>
<path d="M156.379 181.82L153.284 182.676L148.509 171.149L153.076 169.885L156.379 181.82Z" fill="#FFB8B8"/>
<path d="M150.829 182.404L156.797 180.752L157.837 184.509L148.112 187.201C147.975 186.707 147.937 186.192 148 185.684C148.063 185.176 148.225 184.685 148.477 184.239C148.73 183.794 149.067 183.402 149.471 183.087C149.874 182.772 150.336 182.54 150.829 182.404Z" fill="#2F2E41"/>
<path d="M124.119 184.2H120.909L119.381 171.816H124.12L124.119 184.2Z" fill="#FFB8B8"/>
<path d="M118.615 183.283H124.807V187.182H114.717C114.717 186.67 114.818 186.163 115.014 185.69C115.209 185.217 115.497 184.787 115.859 184.425C116.221 184.063 116.65 183.776 117.123 183.58C117.596 183.384 118.103 183.283 118.615 183.283Z" fill="#2F2E41"/>
<path d="M120.248 114.991C120.477 115.301 120.771 115.556 121.11 115.739C121.448 115.923 121.823 116.03 122.207 116.053C122.591 116.075 122.976 116.014 123.334 115.872C123.692 115.73 124.014 115.512 124.279 115.232L132.813 119.07L132.037 114.27L124.051 111.36C123.552 110.948 122.918 110.732 122.27 110.756C121.622 110.779 121.006 111.039 120.537 111.486C120.068 111.934 119.78 112.538 119.726 113.184C119.673 113.83 119.859 114.473 120.248 114.991Z" fill="#FFB8B8"/>
<path d="M137.981 143.863C135.299 143.863 132.523 143.463 130.19 142.275C128.951 141.657 127.854 140.79 126.966 139.728C126.077 138.666 125.418 137.432 125.029 136.104C123.813 132.255 125.346 128.473 126.828 124.816C127.747 122.549 128.614 120.409 128.839 118.299L128.918 117.55C129.269 114.185 129.571 111.28 131.248 110.19C132.117 109.625 133.285 109.593 134.82 110.091L149.235 114.774L148.705 142.138L148.618 142.167C148.542 142.192 143.461 143.863 137.981 143.863Z" fill="#2F2E41"/>
<path d="M134.568 101.572C134.568 101.572 141.639 99.4766 147.139 100.262C147.139 100.262 143.996 117.546 145.044 123.308C146.091 129.069 126.843 125.534 130.771 120.034L132.08 113.487C132.08 113.487 129.462 110.868 131.819 107.726L134.568 101.572Z" fill="#474ED3"/>
<path d="M131.09 143.344L122.376 141.71L125.418 118.296C125.623 117.642 130.336 102.807 132.477 102.005C134.031 101.457 135.62 101.016 137.234 100.683L137.544 100.621L135.797 103.242L128.84 119.912L131.09 143.344Z" fill="#2F2E41"/>
<path d="M126.55 181.33L115.291 179.454L121.609 153.652L131.012 118.367L131.104 118.994C131.112 119.04 131.99 123.65 145.023 121.605L145.138 121.587L145.17 121.698L160.922 177.358L148.093 179.496L136.391 138.887L126.55 181.33Z" fill="#2F2E41"/>
<path d="M142.156 147.729L142.163 147.531C142.17 147.311 142.945 125.435 142.686 116.638C142.427 107.81 145.285 100.165 145.314 100.089L145.337 100.028L145.4 100.009C149.098 98.953 152.305 102.106 152.337 102.138L152.383 102.183L151.329 110.871L155.838 142.465L142.156 147.729Z" fill="#2F2E41"/>
<path d="M141.604 97.6454C145.156 97.6454 148.036 94.7656 148.036 91.2133C148.036 87.661 145.156 84.7812 141.604 84.7812C138.052 84.7812 135.172 87.661 135.172 91.2133C135.172 94.7656 138.052 97.6454 141.604 97.6454Z" fill="#FFB8B8"/>
<path d="M132.558 90.598C132.56 88.7581 133.292 86.9942 134.593 85.6931C135.894 84.3921 137.658 83.6603 139.498 83.6582H140.807C142.647 83.6603 144.411 84.3921 145.712 85.6931C147.013 86.9942 147.745 88.7581 147.747 90.598V90.729H144.98L144.036 88.0861L143.847 90.729H142.417L141.941 89.3955L141.846 90.729H132.558V90.598Z" fill="#2F2E41"/>
<path d="M140.971 98.5329C140.841 98.357 140.763 98.1479 140.747 97.9298C140.731 97.7118 140.776 97.4935 140.879 97.3002C142.266 94.6609 144.209 89.7842 141.63 86.7766L141.445 86.5605H148.931V97.8004L142.13 99.0004C142.062 99.0125 141.992 99.0187 141.922 99.0188C141.736 99.0188 141.553 98.9747 141.388 98.8903C141.223 98.8058 141.08 98.6833 140.971 98.5329Z" fill="#2F2E41"/>
<path d="M110.83 52.1263C105.591 47.7059 99.1809 44.9034 92.3786 44.0598C85.5762 43.2163 78.6753 44.3681 72.5156 47.375C66.3558 50.382 61.2029 55.1145 57.6838 60.9967C54.1647 66.8789 52.4312 73.6571 52.6941 80.5065C52.9571 87.3559 55.2052 93.9813 59.1649 99.5763C63.1246 105.171 68.6252 109.495 74.9973 112.021C81.3694 114.547 88.3383 115.166 95.056 113.803C101.774 112.441 107.951 109.155 112.835 104.346L156.207 140.943C156.867 141.501 157.721 141.774 158.583 141.702C159.444 141.63 160.241 141.219 160.799 140.559C161.357 139.899 161.63 139.044 161.558 138.183C161.486 137.322 161.074 136.525 160.414 135.967L160.41 135.963L117.037 99.3655C122.076 92.1342 124.232 83.282 123.084 74.5436C121.936 65.8051 117.566 57.8105 110.83 52.1263ZM108.034 95.8414C104.655 99.8458 100.165 102.758 95.1306 104.211C90.0965 105.663 84.7447 105.59 79.7521 104.001C74.7595 102.411 70.3502 99.3773 67.082 95.2821C63.8137 91.1869 61.8332 86.2146 61.3909 80.9938C60.9486 75.773 62.0644 70.5384 64.5971 65.9517C67.1299 61.3651 70.9658 57.6325 75.6199 55.226C80.274 52.8194 85.5372 51.847 90.7439 52.4318C95.9507 53.0165 100.867 55.132 104.871 58.5109C107.53 60.7544 109.721 63.4996 111.319 66.5898C112.917 69.68 113.891 73.0547 114.184 76.5212C114.478 79.9876 114.086 83.478 113.031 86.793C111.975 90.1079 110.278 93.1826 108.034 95.8414Z" fill="#3F3D56"/>
<path opacity="0.3" d="M70.7037 99.0054C65.6216 94.7168 62.3382 88.6738 61.5054 82.0764C60.6726 75.4789 62.3514 68.8096 66.2083 63.3926C65.7018 63.9027 65.2122 64.4369 64.7394 64.9953C62.4959 67.6541 60.798 70.7287 59.7428 74.0437C58.6875 77.3587 58.2956 80.8491 58.5893 84.3155C58.8829 87.782 59.8565 91.1566 61.4544 94.2468C63.0523 97.3371 65.2431 100.082 67.902 102.326C70.5608 104.569 73.6354 106.267 76.9504 107.322C80.2654 108.378 83.7558 108.77 87.2222 108.476C90.6887 108.182 94.0633 107.209 97.1535 105.611C100.244 104.013 102.989 101.822 105.232 99.1632C105.704 98.6041 106.148 98.0315 106.565 97.4455C101.874 102.159 95.5824 104.936 88.9389 105.225C82.2954 105.514 75.7861 103.294 70.7037 99.0054Z" fill="black"/>
<path d="M143.669 126.237C144.043 126.328 144.432 126.337 144.81 126.261C145.187 126.186 145.544 126.029 145.854 125.801C146.164 125.573 146.421 125.279 146.605 124.942C146.79 124.604 146.898 124.229 146.923 123.845L155.94 121.342L152.274 118.146L144.273 121.013C143.625 121.015 143 121.255 142.517 121.687C142.034 122.119 141.725 122.713 141.651 123.357C141.576 124.001 141.741 124.649 142.113 125.18C142.485 125.711 143.038 126.087 143.669 126.237Z" fill="#FFB8B8"/>
<path d="M147.417 124.911L146.868 119.698L154.4 115.542L149.489 109.597L150.291 102.92L152.286 102.064L152.348 102.144C153.289 103.354 161.542 114.002 161.542 115.319C161.542 116.671 159.963 120.641 157.803 121.721C155.719 122.763 147.896 124.787 147.564 124.873L147.417 124.911Z" fill="#2F2E41"/>
<path d="M186.501 187.528H86.7243C86.6548 187.528 86.5882 187.5 86.5391 187.451C86.49 187.402 86.4624 187.335 86.4624 187.266C86.4624 187.196 86.49 187.13 86.5391 187.081C86.5882 187.031 86.6548 187.004 86.7243 187.004H186.501C186.57 187.004 186.637 187.031 186.686 187.081C186.735 187.13 186.763 187.196 186.763 187.266C186.763 187.335 186.735 187.402 186.686 187.451C186.637 187.5 186.57 187.528 186.501 187.528Z" fill="#CCCCCC"/>
</g>
<defs>
<clipPath id="clip0_485_381">
<rect width="133.116" height="129.938" fill="white" transform="translate(4.72717 6.47656)"/>
</clipPath>
<clipPath id="clip1_485_381">
<rect width="185.81" height="146.283" fill="white" transform="translate(0.951416 41.2461)"/>
</clipPath>
</defs>
</svg>
